<mxfile host="65bd71144e">
    <diagram id="WsMDFACZDYKJrmFvEDpn" name="Page-1">
        <mxGraphModel dx="1002" dy="659" grid="1" gridSize="10" guides="1" tooltips="1" connect="1" arrows="1" fold="1" page="1" pageScale="1" pageWidth="850" pageHeight="1100" math="0" shadow="0">
            <root>
                <mxCell id="0"/>
                <mxCell id="1" parent="0"/>
                <mxCell id="32" style="edgeStyle=none;html=1;entryX=0;entryY=0.5;entryDx=0;entryDy=0;fontSize=10;fontColor=none;" edge="1" parent="1" source="16" target="29">
                    <mxGeometry relative="1" as="geometry"/>
                </mxCell>
                <mxCell id="16" value="" style="whiteSpace=wrap;html=1;strokeColor=default;dashed=1;strokeWidth=1;perimeterSpacing=12;fillColor=none;" vertex="1" parent="1">
                    <mxGeometry x="295.99" y="570" width="190" height="210" as="geometry"/>
                </mxCell>
                <mxCell id="9" value="" style="whiteSpace=wrap;html=1;strokeColor=default;dashed=1;strokeWidth=1;perimeterSpacing=12;fillColor=none;" vertex="1" parent="1">
                    <mxGeometry x="30.879999999999995" y="290" width="190" height="210" as="geometry"/>
                </mxCell>
                <mxCell id="22" style="edgeStyle=none;html=1;entryX=0;entryY=0.5;entryDx=0;entryDy=0;fontSize=10;" edge="1" parent="1" source="7" target="19">
                    <mxGeometry relative="1" as="geometry"/>
                </mxCell>
                <mxCell id="33" style="edgeStyle=none;html=1;exitX=1;exitY=1;exitDx=0;exitDy=0;entryX=0;entryY=0;entryDx=0;entryDy=0;fontSize=10;fontColor=none;" edge="1" parent="1" source="7" target="29">
                    <mxGeometry relative="1" as="geometry"/>
                </mxCell>
                <mxCell id="7" value="" style="whiteSpace=wrap;html=1;strokeColor=default;strokeWidth=1;perimeterSpacing=12;fillColor=none;" vertex="1" parent="1">
                    <mxGeometry x="305" y="290" width="190" height="210" as="geometry"/>
                </mxCell>
                <mxCell id="3" value="Kaabitseja" style="text;strokeColor=default;align=center;fillColor=none;html=1;verticalAlign=middle;whiteSpace=wrap;rounded=0;perimeterSpacing=12;" vertex="1" parent="1">
                    <mxGeometry x="85" y="310" width="70" height="30" as="geometry"/>
                </mxCell>
                <mxCell id="4" value="" style="shape=image;imageAspect=0;aspect=fixed;verticalLabelPosition=bottom;verticalAlign=top;strokeColor=default;image=http://www.phxc.ee/img/skull_enter.gif;" vertex="1" parent="1">
                    <mxGeometry x="377.78" y="410" width="44.44" height="60" as="geometry"/>
                </mxCell>
                <mxCell id="5" value="PHXC.EE" style="text;strokeColor=default;align=center;fillColor=none;html=1;verticalAlign=middle;whiteSpace=wrap;rounded=0;perimeterSpacing=12;" vertex="1" parent="1">
                    <mxGeometry x="370" y="310" width="60" height="30" as="geometry"/>
                </mxCell>
                <mxCell id="6" value="" style="shape=image;imageAspect=0;aspect=fixed;verticalLabelPosition=bottom;verticalAlign=top;strokeColor=default;image=https://static-00.iconduck.com/assets.00/database-mysql-icon-1849x2048-81vgyimd.png;" vertex="1" parent="1">
                    <mxGeometry x="359.42" y="700" width="63.13" height="70" as="geometry"/>
                </mxCell>
                <mxCell id="8" value="Andmebaas" style="text;strokeColor=default;align=center;fillColor=none;html=1;verticalAlign=middle;whiteSpace=wrap;rounded=0;perimeterSpacing=12;" vertex="1" parent="1">
                    <mxGeometry x="351.28" y="590" width="79.41" height="30" as="geometry"/>
                </mxCell>
                <mxCell id="10" value="" style="endArrow=classic;html=1;exitX=0;exitY=0.5;exitDx=0;exitDy=0;entryX=1;entryY=0.5;entryDx=0;entryDy=0;" edge="1" parent="1" source="7" target="9">
                    <mxGeometry width="50" height="50" relative="1" as="geometry">
                        <mxPoint x="160" y="470" as="sourcePoint"/>
                        <mxPoint x="260" y="340" as="targetPoint"/>
                    </mxGeometry>
                </mxCell>
                <mxCell id="11" value="iga 5 min &lt;br&gt;tagant" style="text;html=1;align=center;verticalAlign=middle;resizable=0;points=[];autosize=1;strokeColor=none;fillColor=none;" vertex="1" parent="1">
                    <mxGeometry x="230.29" y="350" width="70" height="40" as="geometry"/>
                </mxCell>
                <mxCell id="12" value="" style="shape=image;imageAspect=0;aspect=fixed;verticalLabelPosition=bottom;verticalAlign=top;dashed=1;strokeColor=default;strokeWidth=1;fillColor=none;image=https://www.logicata.com/wp-content/uploads/2020/08/Amazon-EC2@4x-e1593195270371.png;" vertex="1" parent="1">
                    <mxGeometry x="100" y="430" width="40" height="40" as="geometry"/>
                </mxCell>
                <mxCell id="13" value="&lt;font style=&quot;font-size: 10px;&quot;&gt;AWS EC2 peal jooksev konteiner.&lt;br&gt;Kaabitud andmed kirjutame MySQLi&lt;br&gt;&lt;/font&gt;" style="text;strokeColor=none;align=center;fillColor=none;html=1;verticalAlign=middle;whiteSpace=wrap;rounded=0;dashed=1;strokeWidth=1;" vertex="1" parent="1">
                    <mxGeometry x="75" y="370" width="90" height="30" as="geometry"/>
                </mxCell>
                <mxCell id="15" value="&lt;font style=&quot;font-size: 10px;&quot;&gt;Programmeerimine II&lt;br&gt;ülesannete edetabel&lt;br&gt;&lt;/font&gt;" style="text;strokeColor=none;align=center;fillColor=none;html=1;verticalAlign=middle;whiteSpace=wrap;rounded=0;dashed=1;strokeWidth=1;" vertex="1" parent="1">
                    <mxGeometry x="342.5" y="360" width="115" height="30" as="geometry"/>
                </mxCell>
                <mxCell id="17" value="&lt;font style=&quot;font-size: 10px;&quot;&gt;MySQL andmebaas, Zones hostitud&lt;br&gt;&lt;/font&gt;" style="text;strokeColor=none;align=center;fillColor=none;html=1;verticalAlign=middle;whiteSpace=wrap;rounded=0;dashed=1;strokeWidth=1;" vertex="1" parent="1">
                    <mxGeometry x="333.97" y="650" width="114.02" height="30" as="geometry"/>
                </mxCell>
                <mxCell id="18" value="" style="endArrow=classic;html=1;fontSize=10;exitX=1;exitY=1;exitDx=0;exitDy=0;entryX=0;entryY=0;entryDx=0;entryDy=0;" edge="1" parent="1" source="9" target="16">
                    <mxGeometry width="50" height="50" relative="1" as="geometry">
                        <mxPoint x="360" y="600" as="sourcePoint"/>
                        <mxPoint x="410" y="550" as="targetPoint"/>
                    </mxGeometry>
                </mxCell>
                <mxCell id="19" value="" style="whiteSpace=wrap;html=1;strokeColor=default;dashed=1;strokeWidth=1;perimeterSpacing=12;fillColor=none;" vertex="1" parent="1">
                    <mxGeometry x="610" y="290" width="190" height="210" as="geometry"/>
                </mxCell>
                <mxCell id="20" value="terminalApp" style="text;strokeColor=default;align=center;fillColor=none;html=1;verticalAlign=middle;whiteSpace=wrap;rounded=0;perimeterSpacing=12;" vertex="1" parent="1">
                    <mxGeometry x="662.5" y="310" width="85" height="30" as="geometry"/>
                </mxCell>
                <mxCell id="21" value="&lt;font style=&quot;font-size: 10px;&quot;&gt;Lokaalselt jooksutatav, ühekordselt kaapiv rakendus. Näitab näiteks edetabeleid, iga osaleja eraldi statistikat, paneb õpilased ELO süsteemi järgi üldedetabelisse&lt;br&gt;&lt;/font&gt;" style="text;strokeColor=none;align=center;fillColor=none;html=1;verticalAlign=middle;whiteSpace=wrap;rounded=0;dashed=1;strokeWidth=1;" vertex="1" parent="1">
                    <mxGeometry x="635" y="355" width="140" height="105" as="geometry"/>
                </mxCell>
                <mxCell id="23" value="" style="endArrow=classic;html=1;fontSize=10;entryX=0.5;entryY=0;entryDx=0;entryDy=0;" edge="1" parent="1" target="7">
                    <mxGeometry width="50" height="50" relative="1" as="geometry">
                        <mxPoint x="400" y="200" as="sourcePoint"/>
                        <mxPoint x="390" y="280" as="targetPoint"/>
                    </mxGeometry>
                </mxCell>
                <mxCell id="24" value="Õpilased esitavad oma &lt;br&gt;programmid Moodle's &lt;br&gt;VPL automaatkontrollile" style="text;html=1;align=center;verticalAlign=middle;resizable=0;points=[];autosize=1;strokeColor=none;fillColor=none;fontSize=10;" vertex="1" parent="1">
                    <mxGeometry x="335" y="130" width="130" height="50" as="geometry"/>
                </mxCell>
                <mxCell id="25" value="Actor" style="shape=umlActor;verticalLabelPosition=bottom;verticalAlign=top;html=1;outlineConnect=0;strokeColor=default;strokeWidth=1;fontSize=10;fillColor=none;fontColor=none;noLabel=1;" vertex="1" parent="1">
                    <mxGeometry x="303.97" y="120" width="30" height="60" as="geometry"/>
                </mxCell>
                <mxCell id="29" value="" style="whiteSpace=wrap;html=1;strokeColor=default;dashed=1;strokeWidth=1;perimeterSpacing=12;fillColor=none;" vertex="1" parent="1">
                    <mxGeometry x="610" y="570" width="190" height="210" as="geometry"/>
                </mxCell>
                <mxCell id="30" value="Projekt 2?" style="text;strokeColor=default;align=center;fillColor=none;html=1;verticalAlign=middle;whiteSpace=wrap;rounded=0;perimeterSpacing=12;" vertex="1" parent="1">
                    <mxGeometry x="646.25" y="590" width="117.5" height="30" as="geometry"/>
                </mxCell>
                <mxCell id="31" value="&lt;font style=&quot;font-size: 10px;&quot;&gt;Kogutud andmete visualiseerimine ja huvitavate mustrite näitamine.&lt;br&gt;&amp;nbsp;&lt;br&gt;Võibolla ka Spring Boot server?&lt;br&gt;&lt;/font&gt;" style="text;strokeColor=none;align=center;fillColor=none;html=1;verticalAlign=middle;whiteSpace=wrap;rounded=0;dashed=1;strokeWidth=1;" vertex="1" parent="1">
                    <mxGeometry x="635" y="635" width="140" height="105" as="geometry"/>
                </mxCell>
            </root>
        </mxGraphModel>
    </diagram>
</mxfile>